{"title":"The.Amazing.Race.Asia.S04E11.Best.Moments-LCP.avi","uid":6005492,"size":366233094,"categoryP":"video","categoryS":"tv_shows","magnet":"?xt=urn:btih:c2cd287aee9a981be4be247345b618befbc906ff&amp;dn=The.Amazing.Race.Asia.S04E11.Best.Moments-LCP.avi&amp;tr=udp%3A%2F%2Ftracker.openbittorrent.com%3A80&amp;tr=udp%3A%2F%2Fopen.demonii.com%3A1337&amp;tr=udp%3A%2F%2Ftracker.coppersurfer.tk%3A6969&amp;tr=udp%3A%2F%2Fexodus.desync.com%3A6969","seeders":1,"leechers":0,"uploader":"LCP-1","files":1,"time":1291310902,"description":"This is a recap of previous episodes for the build up to the finale next week. Enjoy!\n\nVideo\nFormat                           : MPEG-4 Visual\nCodec ID                         : XVID\nDuration                         : 44mn 0s\nBit rate                         : 1 001 Kbps\nWidth                            : 624 pixels\nHeight                           : 352 pixels\nDisplay aspect ratio             : 16:9\nFrame rate                       : 25.000 fps\nBits/(Pixel*Frame)               : 0.182\nStream size                      : 315 MiB (90%)\nWriting library                  : XviD 1.2.1 (UTC 2008-12-04)\n\nAudio\nFormat                           : MPEG Audio\nFormat profile                   : Layer 3\nMode                             : Joint stereo\nCodec ID/Hint                    : MP3\nDuration                         : 43mn 59s\nBit rate mode                    : Constant\nBit rate                         : 96.0 Kbps\nChannel(s)                       : 2 channels\nSampling rate                    : 48.0 KHz\nBit depth                        : 16 bits\nStream size                      : 30.2 MiB (9%)\n","torrent":{"xt":"urn:btih:c2cd287aee9a981be4be247345b618befbc906ff","amp;dn":"The.Amazing.Race.Asia.S04E11.Best.Moments-LCP.avi","amp;tr":["udp%3A%2F%2Ftracker.openbittorrent.com%3A80","udp%3A%2F%2Fopen.demonii.com%3A1337","udp%3A%2F%2Ftracker.coppersurfer.tk%3A6969","udp%3A%2F%2Fexodus.desync.com%3A6969"],"infoHash":"c2cd287aee9a981be4be247345b618befbc906ff","infoHashBuffer":{"type":"Buffer","data":[194,205,40,122,238,154,152,27,228,190,36,115,69,182,24,190,251,201,6,255]},"announce":[],"urlList":[]}}